<svg width="60" height="59" viewBox="0 0 60 59" fill="none" xmlns="http://www.w3.org/2000/svg">
<path d="M35.1016 26.7344C34.4655 26.7344 33.9492 27.2506 33.9492 27.8867C33.9492 28.5228 34.4655 29.0391 35.1016 29.0391C35.7377 29.0391 36.2539 28.5228 36.2539 27.8867C36.2539 27.2506 35.7377 26.7344 35.1016 26.7344Z" fill="#7D7D7D"/>
<path d="M30.4922 19.8203C29.8561 19.8203 29.3398 20.3366 29.3398 20.9727C29.3398 21.6087 29.8561 22.125 30.4922 22.125C31.1283 22.125 31.6445 21.6087 31.6445 20.9727C31.6445 20.3366 31.1283 19.8203 30.4922 19.8203Z" fill="#7D7D7D"/>
<path d="M16.6641 49.7812C16.028 49.7812 15.5117 50.2975 15.5117 50.9336C15.5117 51.5697 16.028 52.0859 16.6641 52.0859C17.3002 52.0859 17.8164 51.5697 17.8164 50.9336C17.8164 50.2975 17.3002 49.7812 16.6641 49.7812Z" fill="#7D7D7D"/>
<path d="M53.3566 46.9785L38.5587 20.6709V6.71655C39.9001 6.24098 40.8634 4.95946 40.8634 3.45703C40.8634 1.55082 39.3125 0 37.4063 0H23.5782C21.672 0 20.1212 1.55082 20.1212 3.45703C20.1212 4.95946 21.0844 6.24098 22.4259 6.71655V20.6709L7.62794 46.9785C6.20733 49.504 6.23256 52.505 7.69523 55.0061C9.15779 57.5069 11.7607 59 14.6579 59H46.3266C49.2239 59 51.8267 57.5069 53.2893 55.0061C54.752 52.505 54.7772 49.504 53.3566 46.9785ZM24.5826 21.5375C24.6796 21.3651 24.7306 21.1705 24.7306 20.9727V6.91406H25.8829C26.5192 6.91406 27.0352 6.39804 27.0352 5.76172C27.0352 5.12539 26.5192 4.60938 25.8829 4.60938H23.5782C22.9428 4.60938 22.4259 4.09243 22.4259 3.45703C22.4259 2.82163 22.9428 2.30469 23.5782 2.30469H37.4063C38.0417 2.30469 38.5587 2.82163 38.5587 3.45703C38.5587 4.09243 38.0417 4.60938 37.4063 4.60938H35.1017C34.4653 4.60938 33.9493 5.12539 33.9493 5.76172C33.9493 6.39804 34.4653 6.91406 35.1017 6.91406H36.254V20.9727C36.254 21.1706 36.3049 21.365 36.402 21.5375L43.194 33.6126C39.0461 33.2767 34.9127 34.1156 31.115 36.0821C26.233 38.6085 20.7982 39.0533 15.6736 37.3758L24.5826 21.5375ZM51.2998 53.8426C50.2552 55.6288 48.396 56.6953 46.3266 56.6953H14.6579C12.5885 56.6953 10.7294 55.6288 9.68476 53.8426C8.63993 52.0561 8.62183 49.9124 9.6367 48.1083L14.5236 39.4205C16.8946 40.2485 19.345 40.6664 21.8337 40.6664C22.2021 40.6664 22.5714 40.6573 22.9414 40.639C26.157 40.4798 29.2634 39.6352 32.1745 38.1287C36.0685 36.1126 40.3514 35.4166 44.5948 36.1028L51.348 48.1083C52.3627 49.9124 52.3447 52.0561 51.2998 53.8426Z" fill="#7D7D7D"/>
<path d="M25.8828 26.7344C23.9766 26.7344 22.4258 28.2852 22.4258 30.1914C22.4258 32.0976 23.9766 33.6484 25.8828 33.6484C27.789 33.6484 29.3398 32.0976 29.3398 30.1914C29.3398 28.2852 27.789 26.7344 25.8828 26.7344ZM25.8828 31.3438C25.2474 31.3438 24.7305 30.8268 24.7305 30.1914C24.7305 29.556 25.2474 29.0391 25.8828 29.0391C26.5182 29.0391 27.0352 29.556 27.0352 30.1914C27.0352 30.8268 26.5182 31.3438 25.8828 31.3438Z" fill="#7D7D7D"/>
<path d="M44.3203 49.7812H21.2734C20.6371 49.7812 20.1211 50.2973 20.1211 50.9336C20.1211 51.5699 20.6371 52.0859 21.2734 52.0859H44.3203C44.9566 52.0859 45.4727 51.5699 45.4727 50.9336C45.4727 50.2973 44.9566 49.7812 44.3203 49.7812Z" fill="#7D7D7D"/>
</svg>
