<svg width="122" height="122" viewBox="0 0 122 122" fill="none" xmlns="http://www.w3.org/2000/svg">
<path d="M61.0059 115.17L85.1746 109.066C98.9698 97.6111 107.757 80.3328 107.757 61.0004C107.757 31.1809 86.8568 6.24311 58.9062 0.0356445C26.1864 1.13912 0 28.0115 0 61.0001C0 77.9448 6.91015 93.2743 18.0646 104.328L61.0059 115.17Z" fill="#CBE2FF"/>
<path d="M106.491 61C106.491 80.9953 96.8693 98.7416 82.0043 109.866L103.934 104.329C115.089 93.2747 122 77.9451 122 61C122 27.3106 94.6895 0 61.0001 0C58.3733 0 55.7851 0.16632 53.2457 0.488476C83.2737 4.29811 106.491 29.9376 106.491 61Z" fill="#BED8FB"/>
<path d="M76.1593 23.1018C76.1593 19.9862 73.6338 17.4607 70.5183 17.4607H51.0788C43.9087 17.4607 38.0961 23.2733 38.0961 30.4434V44.8578H83.8958V30.6479C83.8958 27.5324 81.3703 25.0068 78.2548 25.0068H78.0646C77.0124 25.0068 76.1593 24.154 76.1593 23.1018Z" fill="#365E7D"/>
<path d="M78.2549 25.0068H78.0647C77.0125 25.0068 76.1595 24.1538 76.1595 23.1015C76.1595 19.986 73.6339 17.4604 70.5184 17.4604H68.387V44.8575H83.8957V30.6476C83.896 27.5326 81.3702 25.0068 78.2549 25.0068Z" fill="#2B4D66"/>
<path d="M101.28 88.7248C99.7886 87.2517 97.9439 86.1125 95.8496 85.4496L79.1959 80.1769L61.0036 79.5376L42.8037 80.1769L26.15 85.4496C20.5161 87.2334 16.6871 92.4617 16.6871 98.3713V102.921C27.3595 114.198 42.2907 121.404 58.9065 121.965C77.5229 117.83 93.0114 105.386 101.28 88.7248Z" fill="#4A80AA"/>
<path d="M105.312 102.921V98.3713C105.312 94.1928 103.397 90.3567 100.283 87.8362C91.4406 105.856 73.972 118.877 53.2596 121.509C55.7597 121.826 58.306 121.995 60.8908 121.999C63.3744 121.996 65.8252 121.852 68.2356 121.575C82.7781 119.856 95.7535 113.022 105.312 102.921Z" fill="#407093"/>
<path d="M62.381 121.087C66.0717 113.759 75.6823 92.9536 72.9419 79.9573L61.0037 75.311L49.0544 79.9575C46.2293 93.3549 56.5293 115.051 59.9393 121.726C60.7595 121.529 61.5737 121.316 62.381 121.087Z" fill="#E4F6FF"/>
<path d="M68.6718 115.278L63.8314 96.2349H58.1681L53.3396 115.226L59.3104 121.873C60.8262 121.526 62.3209 121.123 63.7925 120.668L68.6718 115.278Z" fill="#E28086"/>
<path d="M59.4038 121.977C59.8982 121.99 60.3936 121.999 60.8909 122C61.4664 121.999 62.0399 121.989 62.6118 121.973L65.6873 118.575C63.2666 119.424 60.7763 120.125 58.2269 120.667L59.4038 121.977Z" fill="#DD636E"/>
<path d="M71.1919 78.1996V67.4612H50.7998V78.1996C50.7998 83.8306 60.9959 89.9816 60.9959 89.9816C60.9959 89.9816 71.1919 83.8306 71.1919 78.1996Z" fill="#FFDDCE"/>
<path d="M83.8958 42.9662H79.9978C77.8299 42.9662 76.0726 41.2088 76.0726 39.0409V36.8928C76.0726 34.069 73.3097 32.0724 70.6286 32.9586C64.3754 35.0254 57.6234 35.0259 51.37 32.96L51.3626 32.9576C48.6815 32.0719 45.9191 34.0685 45.9191 36.8921V39.0412C45.9191 41.2091 44.1618 42.9664 41.9939 42.9664H38.0961V49.3852C38.0961 51.0253 39.4257 52.3551 41.066 52.3551C41.5835 52.3551 42.0046 52.7605 42.0372 53.2771C42.6634 63.2058 50.9096 71.0657 60.9961 71.0657C71.0825 71.0657 79.3287 63.2058 79.9549 53.2771C79.9876 52.7607 80.4086 52.3551 80.9262 52.3551C82.5662 52.3551 83.8961 51.0255 83.8961 49.3852V42.9662H83.8958Z" fill="#FFDDCE"/>
<path d="M79.998 42.9661C77.8301 42.9661 76.0727 41.2088 76.0727 39.0409V36.8928C76.0727 34.0689 73.3099 32.0724 70.6287 32.9586C69.8882 33.2033 69.1402 33.4168 68.3872 33.6036V54.8039C68.2829 61.7017 64.5032 67.705 58.9215 70.9494C59.6032 71.0235 60.2947 71.0652 60.996 71.0652C71.0824 71.0652 79.3286 63.2053 79.9548 53.2766C79.9875 52.7602 80.4085 52.3546 80.9261 52.3546C82.5661 52.3546 83.896 51.025 83.896 49.3847V42.9659H79.998V42.9661Z" fill="#FFCBBE"/>
<path d="M50.8001 75.311L42.8038 81.8082L51.1894 92.1766C52.2095 93.1697 53.815 93.2307 54.9078 92.3181L61.2139 87.0504L50.8001 75.311Z" fill="#F4FBFF"/>
<path d="M71.1959 75.311L61.2139 87.0504L67.1409 92.1182C68.2267 93.0465 69.8399 92.9998 70.8702 92.0103L79.1958 81.8082L71.1959 75.311Z" fill="#F4FBFF"/>
<path d="M50.8 75.311L39.0632 81.0772C38.1696 81.5161 37.8108 82.6032 38.2671 83.4879L40.5665 87.9461C41.1625 89.1013 40.9425 90.5091 40.0228 91.4274C39.5493 91.8999 39.0365 92.4118 38.5921 92.8554C37.7967 93.6494 37.511 94.8224 37.8613 95.8904C40.6375 104.353 53.9989 117.295 59.0555 121.977C59.3955 121.986 59.7362 121.992 60.0777 121.996C56.4108 114.864 43.4166 87.7658 50.8 75.311Z" fill="#365E7D"/>
<path d="M81.9731 91.4272C81.0531 90.5088 80.8334 89.1011 81.4293 87.9459L83.7288 83.4877C84.1851 82.6029 83.8262 81.5159 82.9327 81.077L71.1959 75.311C78.5774 87.7624 65.5922 114.849 61.9213 121.99C62.2663 121.984 62.6106 121.976 62.9542 121.964C68.0213 117.271 81.361 104.346 84.1345 95.8907C84.4848 94.8227 84.1991 93.6496 83.4037 92.8557C82.9593 92.4118 82.4466 91.8997 81.9731 91.4272Z" fill="#365E7D"/>
<path d="M61.2139 87.0503L55.0043 92.2362L58.1682 96.2348H63.8314L66.9955 92.0003L61.2139 87.0503Z" fill="#DD636E"/>
</svg>
