<svg width="65" height="65" viewBox="0 0 65 65" fill="none" xmlns="http://www.w3.org/2000/svg">
<path d="M36.5625 65H28.4375C26.5416 65 24.375 63.375 24.375 60.125V54.4375C24.375 51.7292 23.0208 49.2917 20.8541 47.3958C15.9791 43.6042 13.5416 38.1875 13.5416 32.2292C13.8125 21.9375 22.2083 13.8125 32.2291 13.5417C37.375 13.5417 42.25 15.4375 45.7708 18.9584C49.2916 22.4792 51.4583 27.3542 51.4583 32.5C51.4583 38.1875 49.0208 43.6042 44.4166 47.125C41.9791 49.0208 40.625 52 40.625 54.7083V60.9375C40.625 63.1042 38.7291 65 36.5625 65ZM32.5 16.25C23.8333 16.25 16.5208 23.5625 16.25 32.2292C16.25 37.375 18.4166 42.25 22.4791 45.2292C25.4583 47.6667 27.0833 50.9167 27.0833 54.4375V60.125C27.0833 60.6667 27.0833 62.2917 28.4375 62.2917H36.5625C37.375 62.2917 37.9166 61.75 37.9166 60.9375V54.7083C37.9166 51.1875 39.8125 47.3958 42.7916 44.9583C46.5833 41.9792 48.75 37.375 48.75 32.5C48.75 28.1667 47.125 24.1042 43.875 20.8542C40.8958 17.875 36.8333 16.25 32.5 16.25Z" fill="white"/>
<path d="M39.2708 56.875H25.7292C24.9167 56.875 24.375 56.3334 24.375 55.5209C24.375 54.7084 24.9167 54.1667 25.7292 54.1667H39.2708C40.0833 54.1667 40.625 54.7084 40.625 55.5209C40.625 56.3334 40.0833 56.875 39.2708 56.875Z" fill="white"/>
<path d="M32.5 8.125C31.6875 8.125 31.1459 7.58333 31.1459 6.77083V1.35417C31.1459 0.541667 31.6875 0 32.5 0C33.3125 0 33.8542 0.541667 33.8542 1.35417V6.77083C33.8542 7.58333 33.3125 8.125 32.5 8.125Z" fill="white"/>
<path d="M50.6458 15.7083C50.375 15.7083 49.8333 15.7083 49.5625 15.4375C49.0208 14.8958 49.0208 14.0833 49.5625 13.5417L53.3542 9.75C53.8958 9.20833 54.7083 9.20833 55.25 9.75C55.7917 10.2917 55.7917 11.1042 55.25 11.6458L51.4583 15.4375C51.4583 15.4375 50.9167 15.7083 50.6458 15.7083Z" fill="white"/>
<path d="M63.6458 33.8541H58.2292C57.4167 33.8541 56.875 33.3125 56.875 32.5C56.875 31.6875 57.4167 31.1458 58.2292 31.1458H63.6458C64.4583 31.1458 65 31.6875 65 32.5C65 33.3125 64.4583 33.8541 63.6458 33.8541Z" fill="white"/>
<path d="M54.4375 55.7916C54.1667 55.7916 53.625 55.7916 53.3542 55.5208L49.5625 51.7291C49.0208 51.1875 49.0208 50.375 49.5625 49.8333C50.1042 49.2916 50.9167 49.2916 51.4583 49.8333L55.25 53.625C55.7917 54.1666 55.7917 54.9791 55.25 55.5208C55.25 55.7916 54.9792 55.7916 54.4375 55.7916Z" fill="white"/>
<path d="M10.5625 55.7916C10.2916 55.7916 9.74996 55.7916 9.47913 55.5208C8.93746 54.9791 8.93746 54.1666 9.47913 53.625L13.2708 49.8333C13.8125 49.2916 14.625 49.2916 15.1666 49.8333C15.7083 50.375 15.7083 51.1875 15.1666 51.7291L11.375 55.5208C11.1041 55.7916 10.8333 55.7916 10.5625 55.7916Z" fill="white"/>
<path d="M6.77083 33.8541H1.35417C0.541667 33.8541 0 33.3125 0 32.5C0 31.6875 0.541667 31.1458 1.35417 31.1458H6.77083C7.58333 31.1458 8.125 31.6875 8.125 32.5C8.125 33.3125 7.58333 33.8541 6.77083 33.8541Z" fill="white"/>
<path d="M14.3541 15.7084C14.0833 15.7084 13.5416 15.7084 13.2708 15.4375L9.47913 11.375C8.93746 10.8334 8.93746 10.0209 9.47913 9.47919C10.0208 8.93752 10.8333 8.93752 11.375 9.47919L15.1666 13.2709C15.7083 13.8125 15.7083 14.625 15.1666 15.1667C14.8958 15.4375 14.625 15.7084 14.3541 15.7084Z" fill="white"/>
<path d="M43.3334 33.8542C42.5209 33.8542 41.9792 33.3125 41.9792 32.5C41.9792 27.3542 37.6459 23.0208 32.5 23.0208C31.6875 23.0208 31.1459 22.4792 31.1459 21.6667C31.1459 20.8542 31.6875 20.3125 32.5 20.3125C39.2709 20.3125 44.6875 25.7292 44.6875 32.5C44.6875 33.3125 44.1459 33.8542 43.3334 33.8542Z" fill="white"/>
</svg>
