<svg width="35" height="35" viewBox="0 0 35 35" fill="none" xmlns="http://www.w3.org/2000/svg">
<g clip-path="url(#clip0)">
<path d="M20.3456 17.077C20.3456 18.8822 18.8822 20.3456 17.077 20.3456C15.2717 20.3456 13.8083 18.8822 13.8083 17.077C13.8083 15.2717 15.2717 13.8083 17.077 13.8083C18.8822 13.8083 20.3456 15.2717 20.3456 17.077Z" fill="#EDFF7C"/>
<path d="M24.7211 11.2939C24.564 10.8681 24.3133 10.4827 23.9876 10.1664C23.6712 9.84065 23.2861 9.58998 22.8601 9.43285C22.5146 9.29866 21.9955 9.13893 21.0395 9.09541C20.0052 9.04825 19.6952 9.03809 17.0769 9.03809C14.4584 9.03809 14.1483 9.04799 13.1144 9.09515C12.1583 9.13893 11.639 9.29866 11.2938 9.43285C10.8677 9.58998 10.4823 9.84065 10.1663 10.1664C9.84055 10.4827 9.58987 10.8678 9.43249 11.2939C9.29829 11.6394 9.13856 12.1587 9.09505 13.1148C9.04788 14.1487 9.03772 14.4588 9.03772 17.0773C9.03772 19.6955 9.04788 20.0056 9.09505 21.0398C9.13856 21.9959 9.29829 22.5149 9.43249 22.8604C9.58987 23.2865 9.84029 23.6716 10.166 23.9879C10.4823 24.3137 10.8675 24.5643 11.2935 24.7215C11.639 24.8559 12.1583 25.0156 13.1144 25.0592C14.1483 25.1063 14.4582 25.1162 17.0767 25.1162C19.6954 25.1162 20.0055 25.1063 21.0392 25.0592C21.9952 25.0156 22.5146 24.8559 22.8601 24.7215C23.7153 24.3916 24.3912 23.7156 24.7211 22.8604C24.8553 22.5149 25.015 21.9959 25.0588 21.0398C25.106 20.0056 25.1159 19.6955 25.1159 17.0773C25.1159 14.4588 25.106 14.1487 25.0588 13.1148C25.0153 12.1587 24.8556 11.6394 24.7211 11.2939ZM17.0769 22.1123C14.2958 22.1123 12.0413 19.8581 12.0413 17.077C12.0413 14.2959 14.2958 12.0417 17.0769 12.0417C19.8578 12.0417 22.1122 14.2959 22.1122 17.077C22.1122 19.8581 19.8578 22.1123 17.0769 22.1123ZM22.3113 13.0194C21.6614 13.0194 21.1346 12.4925 21.1346 11.8426C21.1346 11.1928 21.6614 10.6659 22.3113 10.6659C22.9612 10.6659 23.4881 11.1928 23.4881 11.8426C23.4878 12.4925 22.9612 13.0194 22.3113 13.0194Z" fill="#EDFF7C"/>
<path d="M17.0769 0C7.64704 0 0 7.64704 0 17.0769C0 26.5068 7.64704 34.1538 17.0769 34.1538C26.5068 34.1538 34.1538 26.5068 34.1538 17.0769C34.1538 7.64704 26.5068 0 17.0769 0ZM26.8237 21.1197C26.7762 22.1636 26.6103 22.8762 26.3679 23.5001C25.8585 24.8172 24.8172 25.8585 23.5001 26.3679C22.8765 26.6103 22.1636 26.776 21.12 26.8237C20.0743 26.8713 19.7402 26.8828 17.0772 26.8828C14.4139 26.8828 14.0801 26.8713 13.0341 26.8237C11.9905 26.776 11.2776 26.6103 10.6541 26.3679C9.9995 26.1217 9.40695 25.7358 8.91707 25.2368C8.41834 24.7472 8.03243 24.1544 7.78619 23.5001C7.54385 22.8765 7.37787 22.1636 7.33044 21.12C7.28224 20.074 7.27103 19.74 7.27103 17.0769C7.27103 14.4139 7.28224 14.0798 7.33018 13.0341C7.37761 11.9903 7.54333 11.2776 7.78567 10.6538C8.03191 9.9995 8.41808 9.40669 8.91707 8.91707C9.40669 8.41808 9.9995 8.03217 10.6538 7.78593C11.2776 7.54359 11.9903 7.37787 13.0341 7.33018C14.0798 7.2825 14.4139 7.27103 17.0769 7.27103C19.74 7.27103 20.074 7.2825 21.1197 7.33044C22.1636 7.37787 22.8762 7.54359 23.5001 7.78567C24.1544 8.03191 24.7472 8.41808 25.237 8.91707C25.7358 9.40695 26.1219 9.9995 26.3679 10.6538C26.6105 11.2776 26.7762 11.9903 26.8239 13.0341C26.8716 14.0798 26.8828 14.4139 26.8828 17.0769C26.8828 19.74 26.8716 20.074 26.8237 21.1197Z" fill="#EDFF7C"/>
</g>
<defs>
<clipPath id="clip0">
<rect width="34.1538" height="34.1538" fill="white"/>
</clipPath>
</defs>
</svg>
